<svg width="380" height="23" viewBox="0 0 380 23" fill="none" xmlns="http://www.w3.org/2000/svg">
<rect x="45" width="140" height="23" fill="black" fill-opacity="0.55"/>
<rect x="45.5" y="0.5" width="139" height="22" stroke="#671D00" stroke-opacity="0.48"/>
<path d="M61.8184 6.46875V7.39453H57.7051V15H56.5801V6.46875H61.8184ZM57.4414 9.94336H59.7676C60.3926 9.94336 60.9199 10.0488 61.3496 10.2598C61.7793 10.4668 62.1055 10.7578 62.3281 11.1328C62.5508 11.5078 62.6621 11.9473 62.6621 12.4512C62.6621 12.8262 62.5996 13.1699 62.4746 13.4824C62.3496 13.791 62.1641 14.0605 61.918 14.291C61.6719 14.5176 61.3691 14.6934 61.0098 14.8184C60.6504 14.9395 60.2363 15 59.7676 15H56.5801V6.46875H57.7109V14.0801H59.7676C60.1855 14.0801 60.5234 14.0039 60.7812 13.8516C61.043 13.6953 61.2344 13.4922 61.3555 13.2422C61.4766 12.9922 61.5371 12.7246 61.5371 12.4395C61.5371 12.1543 61.4766 11.8926 61.3555 11.6543C61.2344 11.416 61.043 11.2266 60.7812 11.0859C60.5234 10.9414 60.1855 10.8691 59.7676 10.8691H57.4414V9.94336ZM66.6523 15.1172C66.2109 15.1172 65.8105 15.043 65.4512 14.8945C65.0957 14.7422 64.7891 14.5293 64.5312 14.2559C64.2773 13.9824 64.082 13.6582 63.9453 13.2832C63.8086 12.9082 63.7402 12.498 63.7402 12.0527V11.8066C63.7402 11.291 63.8164 10.832 63.9688 10.4297C64.1211 10.0234 64.3281 9.67969 64.5898 9.39844C64.8516 9.11719 65.1484 8.9043 65.4805 8.75977C65.8125 8.61523 66.1562 8.54297 66.5117 8.54297C66.9648 8.54297 67.3555 8.62109 67.6836 8.77734C68.0156 8.93359 68.2871 9.15234 68.498 9.43359C68.709 9.71094 68.8652 10.0391 68.9668 10.418C69.0684 10.793 69.1191 11.2031 69.1191 11.6484V12.1348H64.3848V11.25H68.0352V11.168C68.0195 10.8867 67.9609 10.6133 67.8594 10.3477C67.7617 10.082 67.6055 9.86328 67.3906 9.69141C67.1758 9.51953 66.8828 9.43359 66.5117 9.43359C66.2656 9.43359 66.0391 9.48633 65.832 9.5918C65.625 9.69336 65.4473 9.8457 65.2988 10.0488C65.1504 10.252 65.0352 10.5 64.9531 10.793C64.8711 11.0859 64.8301 11.4238 64.8301 11.8066V12.0527C64.8301 12.3535 64.8711 12.6367 64.9531 12.9023C65.0391 13.1641 65.1621 13.3945 65.3223 13.5938C65.4863 13.793 65.6836 13.9492 65.9141 14.0625C66.1484 14.1758 66.4141 14.2324 66.7109 14.2324C67.0938 14.2324 67.418 14.1543 67.6836 13.998C67.9492 13.8418 68.1816 13.6328 68.3809 13.3711L69.0371 13.8926C68.9004 14.0996 68.7266 14.2969 68.5156 14.4844C68.3047 14.6719 68.0449 14.8242 67.7363 14.9414C67.4316 15.0586 67.0703 15.1172 66.6523 15.1172ZM72.9219 14.2266C73.1797 14.2266 73.418 14.1738 73.6367 14.0684C73.8555 13.9629 74.0352 13.8184 74.1758 13.6348C74.3164 13.4473 74.3965 13.2344 74.416 12.9961H75.4473C75.4277 13.3711 75.3008 13.7207 75.0664 14.0449C74.8359 14.3652 74.5332 14.625 74.1582 14.8242C73.7832 15.0195 73.3711 15.1172 72.9219 15.1172C72.4453 15.1172 72.0293 15.0332 71.6738 14.8652C71.3223 14.6973 71.0293 14.4668 70.7949 14.1738C70.5645 13.8809 70.3906 13.5449 70.2734 13.166C70.1602 12.7832 70.1035 12.3789 70.1035 11.9531V11.707C70.1035 11.2812 70.1602 10.8789 70.2734 10.5C70.3906 10.1172 70.5645 9.7793 70.7949 9.48633C71.0293 9.19336 71.3223 8.96289 71.6738 8.79492C72.0293 8.62695 72.4453 8.54297 72.9219 8.54297C73.418 8.54297 73.8516 8.64453 74.2227 8.84766C74.5938 9.04688 74.8848 9.32031 75.0957 9.66797C75.3105 10.0117 75.4277 10.4023 75.4473 10.8398H74.416C74.3965 10.5781 74.3223 10.3418 74.1934 10.1309C74.0684 9.91992 73.8965 9.75195 73.6777 9.62695C73.4629 9.49805 73.2109 9.43359 72.9219 9.43359C72.5898 9.43359 72.3105 9.5 72.084 9.63281C71.8613 9.76172 71.6836 9.9375 71.5508 10.1602C71.4219 10.3789 71.3281 10.623 71.2695 10.8926C71.2148 11.1582 71.1875 11.4297 71.1875 11.707V11.9531C71.1875 12.2305 71.2148 12.5039 71.2695 12.7734C71.3242 13.043 71.416 13.2871 71.5449 13.5059C71.6777 13.7246 71.8555 13.9004 72.0781 14.0332C72.3047 14.1621 72.5859 14.2266 72.9219 14.2266ZM80.8906 8.66016V9.55664H77.6855V8.66016H80.8906ZM77.8438 8.66016V15H76.7598V8.66016H77.8438ZM81.8516 8.66016V15H80.7617V8.66016H81.8516ZM87.8281 8.66016V9.55664H84.7637V8.66016H87.8281ZM88.7832 8.66016V15H87.6992V8.66016H88.7832ZM84.5 8.66016H85.5898L85.4258 11.7188C85.3984 12.1914 85.3535 12.6094 85.291 12.9727C85.2324 13.332 85.1504 13.6406 85.0449 13.8984C84.9434 14.1562 84.8145 14.3672 84.6582 14.5312C84.5059 14.6914 84.3223 14.8105 84.1074 14.8887C83.8926 14.9629 83.6445 15 83.3633 15H83.0234V14.0449L83.2578 14.0273C83.4258 14.0156 83.5684 13.9766 83.6855 13.9102C83.8066 13.8438 83.9082 13.7461 83.9902 13.6172C84.0723 13.4844 84.1387 13.3145 84.1895 13.1074C84.2441 12.9004 84.2852 12.6543 84.3125 12.3691C84.3438 12.084 84.3672 11.752 84.3828 11.373L84.5 8.66016ZM94.2676 13.916V10.6523C94.2676 10.4023 94.2168 10.1855 94.1152 10.002C94.0176 9.81445 93.8691 9.66992 93.6699 9.56836C93.4707 9.4668 93.2246 9.41602 92.9316 9.41602C92.6582 9.41602 92.418 9.46289 92.2109 9.55664C92.0078 9.65039 91.8477 9.77344 91.7305 9.92578C91.6172 10.0781 91.5605 10.2422 91.5605 10.418H90.4766C90.4766 10.1914 90.5352 9.9668 90.6523 9.74414C90.7695 9.52148 90.9375 9.32031 91.1562 9.14062C91.3789 8.95703 91.6445 8.8125 91.9531 8.70703C92.2656 8.59766 92.6133 8.54297 92.9961 8.54297C93.457 8.54297 93.8633 8.62109 94.2148 8.77734C94.5703 8.93359 94.8477 9.16992 95.0469 9.48633C95.25 9.79883 95.3516 10.1914 95.3516 10.6641V13.6172C95.3516 13.8281 95.3691 14.0527 95.4043 14.291C95.4434 14.5293 95.5 14.7344 95.5742 14.9062V15H94.4434C94.3887 14.875 94.3457 14.709 94.3145 14.502C94.2832 14.291 94.2676 14.0957 94.2676 13.916ZM94.4551 11.1562L94.4668 11.918H93.3711C93.0625 11.918 92.7871 11.9434 92.5449 11.9941C92.3027 12.041 92.0996 12.1133 91.9355 12.2109C91.7715 12.3086 91.6465 12.4316 91.5605 12.5801C91.4746 12.7246 91.4316 12.8945 91.4316 13.0898C91.4316 13.2891 91.4766 13.4707 91.5664 13.6348C91.6562 13.7988 91.791 13.9297 91.9707 14.0273C92.1543 14.1211 92.3789 14.168 92.6445 14.168C92.9766 14.168 93.2695 14.0977 93.5234 13.957C93.7773 13.8164 93.9785 13.6445 94.127 13.4414C94.2793 13.2383 94.3613 13.041 94.373 12.8496L94.8359 13.3711C94.8086 13.5352 94.7344 13.7168 94.6133 13.916C94.4922 14.1152 94.3301 14.3066 94.127 14.4902C93.9277 14.6699 93.6895 14.8203 93.4121 14.9414C93.1387 15.0586 92.8301 15.1172 92.4863 15.1172C92.0566 15.1172 91.6797 15.0332 91.3555 14.8652C91.0352 14.6973 90.7852 14.4727 90.6055 14.1914C90.4297 13.9062 90.3418 13.5879 90.3418 13.2363C90.3418 12.8965 90.4082 12.5977 90.541 12.3398C90.6738 12.0781 90.8652 11.8613 91.1152 11.6895C91.3652 11.5137 91.666 11.3809 92.0176 11.291C92.3691 11.2012 92.7617 11.1562 93.1953 11.1562H94.4551ZM99.5469 8.66016V15H98.457V8.66016H99.5469ZM101.674 8.66016V9.53906H96.3711V8.66016H101.674ZM107.041 11.4082V12.2871H103.689V11.4082H107.041ZM103.918 8.66016V15H102.834V8.66016H103.918ZM107.92 8.66016V15H106.83V8.66016H107.92ZM110.557 10.8398H112.461C112.973 10.8398 113.404 10.9297 113.756 11.1094C114.107 11.2852 114.373 11.5293 114.553 11.8418C114.736 12.1504 114.828 12.502 114.828 12.8965C114.828 13.1895 114.777 13.4648 114.676 13.7227C114.574 13.9766 114.422 14.1992 114.219 14.3906C114.02 14.582 113.771 14.7324 113.475 14.8418C113.182 14.9473 112.844 15 112.461 15H109.766V8.66016H110.85V14.1094H112.461C112.773 14.1094 113.023 14.0527 113.211 13.9395C113.398 13.8262 113.533 13.6797 113.615 13.5C113.697 13.3203 113.738 13.1328 113.738 12.9375C113.738 12.7461 113.697 12.5586 113.615 12.375C113.533 12.1914 113.398 12.0391 113.211 11.918C113.023 11.793 112.773 11.7305 112.461 11.7305H110.557V10.8398ZM117.084 8.66016V15H116V8.66016H117.084ZM121.613 15.1172C121.172 15.1172 120.771 15.043 120.412 14.8945C120.057 14.7422 119.75 14.5293 119.492 14.2559C119.238 13.9824 119.043 13.6582 118.906 13.2832C118.77 12.9082 118.701 12.498 118.701 12.0527V11.8066C118.701 11.291 118.777 10.832 118.93 10.4297C119.082 10.0234 119.289 9.67969 119.551 9.39844C119.812 9.11719 120.109 8.9043 120.441 8.75977C120.773 8.61523 121.117 8.54297 121.473 8.54297C121.926 8.54297 122.316 8.62109 122.645 8.77734C122.977 8.93359 123.248 9.15234 123.459 9.43359C123.67 9.71094 123.826 10.0391 123.928 10.418C124.029 10.793 124.08 11.2031 124.08 11.6484V12.1348H119.346V11.25H122.996V11.168C122.98 10.8867 122.922 10.6133 122.82 10.3477C122.723 10.082 122.566 9.86328 122.352 9.69141C122.137 9.51953 121.844 9.43359 121.473 9.43359C121.227 9.43359 121 9.48633 120.793 9.5918C120.586 9.69336 120.408 9.8457 120.26 10.0488C120.111 10.252 119.996 10.5 119.914 10.793C119.832 11.0859 119.791 11.4238 119.791 11.8066V12.0527C119.791 12.3535 119.832 12.6367 119.914 12.9023C120 13.1641 120.123 13.3945 120.283 13.5938C120.447 13.793 120.645 13.9492 120.875 14.0625C121.109 14.1758 121.375 14.2324 121.672 14.2324C122.055 14.2324 122.379 14.1543 122.645 13.998C122.91 13.8418 123.143 13.6328 123.342 13.3711L123.998 13.8926C123.861 14.0996 123.688 14.2969 123.477 14.4844C123.266 14.6719 123.006 14.8242 122.697 14.9414C122.393 15.0586 122.031 15.1172 121.613 15.1172ZM130.859 14.2266C131.117 14.2266 131.355 14.1738 131.574 14.0684C131.793 13.9629 131.973 13.8184 132.113 13.6348C132.254 13.4473 132.334 13.2344 132.354 12.9961H133.385C133.365 13.3711 133.238 13.7207 133.004 14.0449C132.773 14.3652 132.471 14.625 132.096 14.8242C131.721 15.0195 131.309 15.1172 130.859 15.1172C130.383 15.1172 129.967 15.0332 129.611 14.8652C129.26 14.6973 128.967 14.4668 128.732 14.1738C128.502 13.8809 128.328 13.5449 128.211 13.166C128.098 12.7832 128.041 12.3789 128.041 11.9531V11.707C128.041 11.2812 128.098 10.8789 128.211 10.5C128.328 10.1172 128.502 9.7793 128.732 9.48633C128.967 9.19336 129.26 8.96289 129.611 8.79492C129.967 8.62695 130.383 8.54297 130.859 8.54297C131.355 8.54297 131.789 8.64453 132.16 8.84766C132.531 9.04688 132.822 9.32031 133.033 9.66797C133.248 10.0117 133.365 10.4023 133.385 10.8398H132.354C132.334 10.5781 132.26 10.3418 132.131 10.1309C132.006 9.91992 131.834 9.75195 131.615 9.62695C131.4 9.49805 131.148 9.43359 130.859 9.43359C130.527 9.43359 130.248 9.5 130.021 9.63281C129.799 9.76172 129.621 9.9375 129.488 10.1602C129.359 10.3789 129.266 10.623 129.207 10.8926C129.152 11.1582 129.125 11.4297 129.125 11.707V11.9531C129.125 12.2305 129.152 12.5039 129.207 12.7734C129.262 13.043 129.354 13.2871 129.482 13.5059C129.615 13.7246 129.793 13.9004 130.016 14.0332C130.242 14.1621 130.523 14.2266 130.859 14.2266ZM137.234 15.1172C136.793 15.1172 136.393 15.043 136.033 14.8945C135.678 14.7422 135.371 14.5293 135.113 14.2559C134.859 13.9824 134.664 13.6582 134.527 13.2832C134.391 12.9082 134.322 12.498 134.322 12.0527V11.8066C134.322 11.291 134.398 10.832 134.551 10.4297C134.703 10.0234 134.91 9.67969 135.172 9.39844C135.434 9.11719 135.73 8.9043 136.062 8.75977C136.395 8.61523 136.738 8.54297 137.094 8.54297C137.547 8.54297 137.938 8.62109 138.266 8.77734C138.598 8.93359 138.869 9.15234 139.08 9.43359C139.291 9.71094 139.447 10.0391 139.549 10.418C139.65 10.793 139.701 11.2031 139.701 11.6484V12.1348H134.967V11.25H138.617V11.168C138.602 10.8867 138.543 10.6133 138.441 10.3477C138.344 10.082 138.188 9.86328 137.973 9.69141C137.758 9.51953 137.465 9.43359 137.094 9.43359C136.848 9.43359 136.621 9.48633 136.414 9.5918C136.207 9.69336 136.029 9.8457 135.881 10.0488C135.732 10.252 135.617 10.5 135.535 10.793C135.453 11.0859 135.412 11.4238 135.412 11.8066V12.0527C135.412 12.3535 135.453 12.6367 135.535 12.9023C135.621 13.1641 135.744 13.3945 135.904 13.5938C136.068 13.793 136.266 13.9492 136.496 14.0625C136.73 14.1758 136.996 14.2324 137.293 14.2324C137.676 14.2324 138 14.1543 138.266 13.998C138.531 13.8418 138.764 13.6328 138.963 13.3711L139.619 13.8926C139.482 14.0996 139.309 14.2969 139.098 14.4844C138.887 14.6719 138.627 14.8242 138.318 14.9414C138.014 15.0586 137.652 15.1172 137.234 15.1172ZM142.051 9.87891V17.4375H140.961V8.66016H141.957L142.051 9.87891ZM146.322 11.7773V11.9004C146.322 12.3613 146.268 12.7891 146.158 13.1836C146.049 13.5742 145.889 13.9141 145.678 14.2031C145.471 14.4922 145.215 14.7168 144.91 14.877C144.605 15.0371 144.256 15.1172 143.861 15.1172C143.459 15.1172 143.104 15.0508 142.795 14.918C142.486 14.7852 142.225 14.5918 142.01 14.3379C141.795 14.084 141.623 13.7793 141.494 13.4238C141.369 13.0684 141.283 12.668 141.236 12.2227V11.5664C141.283 11.0977 141.371 10.6777 141.5 10.3066C141.629 9.93555 141.799 9.61914 142.01 9.35742C142.225 9.0918 142.484 8.89062 142.789 8.75391C143.094 8.61328 143.445 8.54297 143.844 8.54297C144.242 8.54297 144.596 8.62109 144.904 8.77734C145.213 8.92969 145.473 9.14844 145.684 9.43359C145.895 9.71875 146.053 10.0605 146.158 10.459C146.268 10.8535 146.322 11.293 146.322 11.7773ZM145.232 11.9004V11.7773C145.232 11.4609 145.199 11.1641 145.133 10.8867C145.066 10.6055 144.963 10.3594 144.822 10.1484C144.686 9.93359 144.51 9.76562 144.295 9.64453C144.08 9.51953 143.824 9.45703 143.527 9.45703C143.254 9.45703 143.016 9.50391 142.812 9.59766C142.613 9.69141 142.443 9.81836 142.303 9.97852C142.162 10.1348 142.047 10.3145 141.957 10.5176C141.871 10.7168 141.807 10.9238 141.764 11.1387V12.6562C141.842 12.9297 141.951 13.1875 142.092 13.4297C142.232 13.668 142.42 13.8613 142.654 14.0098C142.889 14.1543 143.184 14.2266 143.539 14.2266C143.832 14.2266 144.084 14.166 144.295 14.0449C144.51 13.9199 144.686 13.75 144.822 13.5352C144.963 13.3203 145.066 13.0742 145.133 12.7969C145.199 12.5156 145.232 12.2168 145.232 11.9004ZM150.682 12.2109H148.602L148.59 11.3438H150.289C150.625 11.3438 150.904 11.3105 151.127 11.2441C151.354 11.1777 151.523 11.0781 151.637 10.9453C151.75 10.8125 151.807 10.6484 151.807 10.4531C151.807 10.3008 151.773 10.168 151.707 10.0547C151.645 9.9375 151.549 9.8418 151.42 9.76758C151.291 9.68945 151.131 9.63281 150.939 9.59766C150.752 9.55859 150.531 9.53906 150.277 9.53906H148.889V15H147.805V8.66016H150.277C150.68 8.66016 151.041 8.69531 151.361 8.76562C151.686 8.83594 151.961 8.94336 152.188 9.08789C152.418 9.22852 152.594 9.4082 152.715 9.62695C152.836 9.8457 152.896 10.1035 152.896 10.4004C152.896 10.5918 152.857 10.7734 152.779 10.9453C152.701 11.1172 152.586 11.2695 152.434 11.4023C152.281 11.5352 152.094 11.6445 151.871 11.7305C151.648 11.8125 151.393 11.8652 151.104 11.8887L150.682 12.2109ZM150.682 15H148.209L148.748 14.1211H150.682C150.982 14.1211 151.232 14.084 151.432 14.0098C151.631 13.9316 151.779 13.8223 151.877 13.6816C151.979 13.5371 152.029 13.3652 152.029 13.166C152.029 12.9668 151.979 12.7969 151.877 12.6562C151.779 12.5117 151.631 12.4023 151.432 12.3281C151.232 12.25 150.982 12.2109 150.682 12.2109H149.035L149.047 11.3438H151.104L151.496 11.6719C151.844 11.6992 152.139 11.7852 152.381 11.9297C152.623 12.0742 152.807 12.2578 152.932 12.4805C153.057 12.6992 153.119 12.9375 153.119 13.1953C153.119 13.4922 153.062 13.7539 152.949 13.9805C152.84 14.207 152.68 14.3965 152.469 14.5488C152.258 14.6973 152.002 14.8105 151.701 14.8887C151.4 14.9629 151.061 15 150.682 15ZM157.203 15.1172C156.762 15.1172 156.361 15.043 156.002 14.8945C155.646 14.7422 155.34 14.5293 155.082 14.2559C154.828 13.9824 154.633 13.6582 154.496 13.2832C154.359 12.9082 154.291 12.498 154.291 12.0527V11.8066C154.291 11.291 154.367 10.832 154.52 10.4297C154.672 10.0234 154.879 9.67969 155.141 9.39844C155.402 9.11719 155.699 8.9043 156.031 8.75977C156.363 8.61523 156.707 8.54297 157.062 8.54297C157.516 8.54297 157.906 8.62109 158.234 8.77734C158.566 8.93359 158.838 9.15234 159.049 9.43359C159.26 9.71094 159.416 10.0391 159.518 10.418C159.619 10.793 159.67 11.2031 159.67 11.6484V12.1348H154.936V11.25H158.586V11.168C158.57 10.8867 158.512 10.6133 158.41 10.3477C158.312 10.082 158.156 9.86328 157.941 9.69141C157.727 9.51953 157.434 9.43359 157.062 9.43359C156.816 9.43359 156.59 9.48633 156.383 9.5918C156.176 9.69336 155.998 9.8457 155.85 10.0488C155.701 10.252 155.586 10.5 155.504 10.793C155.422 11.0859 155.381 11.4238 155.381 11.8066V12.0527C155.381 12.3535 155.422 12.6367 155.504 12.9023C155.59 13.1641 155.713 13.3945 155.873 13.5938C156.037 13.793 156.234 13.9492 156.465 14.0625C156.699 14.1758 156.965 14.2324 157.262 14.2324C157.645 14.2324 157.969 14.1543 158.234 13.998C158.5 13.8418 158.732 13.6328 158.932 13.3711L159.588 13.8926C159.451 14.0996 159.277 14.2969 159.066 14.4844C158.855 14.6719 158.596 14.8242 158.287 14.9414C157.982 15.0586 157.621 15.1172 157.203 15.1172ZM162.02 9.87891V17.4375H160.93V8.66016H161.926L162.02 9.87891ZM166.291 11.7773V11.9004C166.291 12.3613 166.236 12.7891 166.127 13.1836C166.018 13.5742 165.857 13.9141 165.646 14.2031C165.439 14.4922 165.184 14.7168 164.879 14.877C164.574 15.0371 164.225 15.1172 163.83 15.1172C163.428 15.1172 163.072 15.0508 162.764 14.918C162.455 14.7852 162.193 14.5918 161.979 14.3379C161.764 14.084 161.592 13.7793 161.463 13.4238C161.338 13.0684 161.252 12.668 161.205 12.2227V11.5664C161.252 11.0977 161.34 10.6777 161.469 10.3066C161.598 9.93555 161.768 9.61914 161.979 9.35742C162.193 9.0918 162.453 8.89062 162.758 8.75391C163.062 8.61328 163.414 8.54297 163.812 8.54297C164.211 8.54297 164.564 8.62109 164.873 8.77734C165.182 8.92969 165.441 9.14844 165.652 9.43359C165.863 9.71875 166.021 10.0605 166.127 10.459C166.236 10.8535 166.291 11.293 166.291 11.7773ZM165.201 11.9004V11.7773C165.201 11.4609 165.168 11.1641 165.102 10.8867C165.035 10.6055 164.932 10.3594 164.791 10.1484C164.654 9.93359 164.479 9.76562 164.264 9.64453C164.049 9.51953 163.793 9.45703 163.496 9.45703C163.223 9.45703 162.984 9.50391 162.781 9.59766C162.582 9.69141 162.412 9.81836 162.271 9.97852C162.131 10.1348 162.016 10.3145 161.926 10.5176C161.84 10.7168 161.775 10.9238 161.732 11.1387V12.6562C161.811 12.9297 161.92 13.1875 162.061 13.4297C162.201 13.668 162.389 13.8613 162.623 14.0098C162.857 14.1543 163.152 14.2266 163.508 14.2266C163.801 14.2266 164.053 14.166 164.264 14.0449C164.479 13.9199 164.654 13.75 164.791 13.5352C164.932 13.3203 165.035 13.0742 165.102 12.7969C165.168 12.5156 165.201 12.2168 165.201 11.9004ZM171.412 13.916V10.6523C171.412 10.4023 171.361 10.1855 171.26 10.002C171.162 9.81445 171.014 9.66992 170.814 9.56836C170.615 9.4668 170.369 9.41602 170.076 9.41602C169.803 9.41602 169.562 9.46289 169.355 9.55664C169.152 9.65039 168.992 9.77344 168.875 9.92578C168.762 10.0781 168.705 10.2422 168.705 10.418H167.621C167.621 10.1914 167.68 9.9668 167.797 9.74414C167.914 9.52148 168.082 9.32031 168.301 9.14062C168.523 8.95703 168.789 8.8125 169.098 8.70703C169.41 8.59766 169.758 8.54297 170.141 8.54297C170.602 8.54297 171.008 8.62109 171.359 8.77734C171.715 8.93359 171.992 9.16992 172.191 9.48633C172.395 9.79883 172.496 10.1914 172.496 10.6641V13.6172C172.496 13.8281 172.514 14.0527 172.549 14.291C172.588 14.5293 172.645 14.7344 172.719 14.9062V15H171.588C171.533 14.875 171.49 14.709 171.459 14.502C171.428 14.291 171.412 14.0957 171.412 13.916ZM171.6 11.1562L171.611 11.918H170.516C170.207 11.918 169.932 11.9434 169.689 11.9941C169.447 12.041 169.244 12.1133 169.08 12.2109C168.916 12.3086 168.791 12.4316 168.705 12.5801C168.619 12.7246 168.576 12.8945 168.576 13.0898C168.576 13.2891 168.621 13.4707 168.711 13.6348C168.801 13.7988 168.936 13.9297 169.115 14.0273C169.299 14.1211 169.523 14.168 169.789 14.168C170.121 14.168 170.414 14.0977 170.668 13.957C170.922 13.8164 171.123 13.6445 171.271 13.4414C171.424 13.2383 171.506 13.041 171.518 12.8496L171.98 13.3711C171.953 13.5352 171.879 13.7168 171.758 13.916C171.637 14.1152 171.475 14.3066 171.271 14.4902C171.072 14.6699 170.834 14.8203 170.557 14.9414C170.283 15.0586 169.975 15.1172 169.631 15.1172C169.201 15.1172 168.824 15.0332 168.5 14.8652C168.18 14.6973 167.93 14.4727 167.75 14.1914C167.574 13.9062 167.486 13.5879 167.486 13.2363C167.486 12.8965 167.553 12.5977 167.686 12.3398C167.818 12.0781 168.01 11.8613 168.26 11.6895C168.51 11.5137 168.811 11.3809 169.162 11.291C169.514 11.2012 169.906 11.1562 170.34 11.1562H171.6Z" fill="#671D00"/>
<rect x="196" width="140" height="23" fill="black" fill-opacity="0.55"/>
<rect x="196.5" y="0.5" width="139" height="22" stroke="#671D00" stroke-opacity="0.48"/>
<path d="M212.391 6.46875V15H211.266V7.39453H207.059V15H205.928V6.46875H212.391ZM213.99 11.9004V11.7656C213.99 11.3086 214.057 10.8848 214.189 10.4941C214.322 10.0996 214.514 9.75781 214.764 9.46875C215.014 9.17578 215.316 8.94922 215.672 8.78906C216.027 8.625 216.426 8.54297 216.867 8.54297C217.312 8.54297 217.713 8.625 218.068 8.78906C218.428 8.94922 218.732 9.17578 218.982 9.46875C219.236 9.75781 219.43 10.0996 219.562 10.4941C219.695 10.8848 219.762 11.3086 219.762 11.7656V11.9004C219.762 12.3574 219.695 12.7812 219.562 13.1719C219.43 13.5625 219.236 13.9043 218.982 14.1973C218.732 14.4863 218.43 14.7129 218.074 14.877C217.723 15.0371 217.324 15.1172 216.879 15.1172C216.434 15.1172 216.033 15.0371 215.678 14.877C215.322 14.7129 215.018 14.4863 214.764 14.1973C214.514 13.9043 214.322 13.5625 214.189 13.1719C214.057 12.7812 213.99 12.3574 213.99 11.9004ZM215.074 11.7656V11.9004C215.074 12.2168 215.111 12.5156 215.186 12.7969C215.26 13.0742 215.371 13.3203 215.52 13.5352C215.672 13.75 215.861 13.9199 216.088 14.0449C216.314 14.166 216.578 14.2266 216.879 14.2266C217.176 14.2266 217.436 14.166 217.658 14.0449C217.885 13.9199 218.072 13.75 218.221 13.5352C218.369 13.3203 218.48 13.0742 218.555 12.7969C218.633 12.5156 218.672 12.2168 218.672 11.9004V11.7656C218.672 11.4531 218.633 11.1582 218.555 10.8809C218.48 10.5996 218.367 10.3516 218.215 10.1367C218.066 9.91797 217.879 9.74609 217.652 9.62109C217.43 9.49609 217.168 9.43359 216.867 9.43359C216.57 9.43359 216.309 9.49609 216.082 9.62109C215.859 9.74609 215.672 9.91797 215.52 10.1367C215.371 10.3516 215.26 10.5996 215.186 10.8809C215.111 11.1582 215.074 11.4531 215.074 11.7656ZM221.842 8.66016H222.926L222.832 11.0332C222.809 11.6348 222.74 12.1543 222.627 12.5918C222.514 13.0293 222.369 13.4023 222.193 13.7109C222.018 14.0156 221.82 14.2715 221.602 14.4785C221.387 14.6855 221.164 14.8594 220.934 15H220.395L220.424 14.1152L220.646 14.1094C220.775 13.957 220.9 13.8008 221.021 13.6406C221.143 13.4766 221.254 13.2832 221.355 13.0605C221.457 12.834 221.541 12.5586 221.607 12.2344C221.678 11.9062 221.723 11.5059 221.742 11.0332L221.842 8.66016ZM222.111 8.66016H225.926V15H224.842V9.66211H222.111V8.66016ZM220.148 14.1094H226.74V16.8691H225.656V15H221.232V16.8691H220.143L220.148 14.1094ZM232.166 8.66016V9.55664H228.961V8.66016H232.166ZM229.119 8.66016V15H228.035V8.66016H229.119ZM233.127 8.66016V15H232.037V8.66016H233.127ZM236.039 13.2832L238.963 8.66016H240.053V15H238.963V10.377L236.039 15H234.961V8.66016H236.039V13.2832ZM244.33 14.2266C244.588 14.2266 244.826 14.1738 245.045 14.0684C245.264 13.9629 245.443 13.8184 245.584 13.6348C245.725 13.4473 245.805 13.2344 245.824 12.9961H246.855C246.836 13.3711 246.709 13.7207 246.475 14.0449C246.244 14.3652 245.941 14.625 245.566 14.8242C245.191 15.0195 244.779 15.1172 244.33 15.1172C243.854 15.1172 243.438 15.0332 243.082 14.8652C242.73 14.6973 242.438 14.4668 242.203 14.1738C241.973 13.8809 241.799 13.5449 241.682 13.166C241.568 12.7832 241.512 12.3789 241.512 11.9531V11.707C241.512 11.2812 241.568 10.8789 241.682 10.5C241.799 10.1172 241.973 9.7793 242.203 9.48633C242.438 9.19336 242.73 8.96289 243.082 8.79492C243.438 8.62695 243.854 8.54297 244.33 8.54297C244.826 8.54297 245.26 8.64453 245.631 8.84766C246.002 9.04688 246.293 9.32031 246.504 9.66797C246.719 10.0117 246.836 10.4023 246.855 10.8398H245.824C245.805 10.5781 245.73 10.3418 245.602 10.1309C245.477 9.91992 245.305 9.75195 245.086 9.62695C244.871 9.49805 244.619 9.43359 244.33 9.43359C243.998 9.43359 243.719 9.5 243.492 9.63281C243.27 9.76172 243.092 9.9375 242.959 10.1602C242.83 10.3789 242.736 10.623 242.678 10.8926C242.623 11.1582 242.596 11.4297 242.596 11.707V11.9531C242.596 12.2305 242.623 12.5039 242.678 12.7734C242.732 13.043 242.824 13.2871 242.953 13.5059C243.086 13.7246 243.264 13.9004 243.486 14.0332C243.713 14.1621 243.994 14.2266 244.33 14.2266ZM247.787 11.9004V11.7656C247.787 11.3086 247.854 10.8848 247.986 10.4941C248.119 10.0996 248.311 9.75781 248.561 9.46875C248.811 9.17578 249.113 8.94922 249.469 8.78906C249.824 8.625 250.223 8.54297 250.664 8.54297C251.109 8.54297 251.51 8.625 251.865 8.78906C252.225 8.94922 252.529 9.17578 252.779 9.46875C253.033 9.75781 253.227 10.0996 253.359 10.4941C253.492 10.8848 253.559 11.3086 253.559 11.7656V11.9004C253.559 12.3574 253.492 12.7812 253.359 13.1719C253.227 13.5625 253.033 13.9043 252.779 14.1973C252.529 14.4863 252.227 14.7129 251.871 14.877C251.52 15.0371 251.121 15.1172 250.676 15.1172C250.23 15.1172 249.83 15.0371 249.475 14.877C249.119 14.7129 248.814 14.4863 248.561 14.1973C248.311 13.9043 248.119 13.5625 247.986 13.1719C247.854 12.7812 247.787 12.3574 247.787 11.9004ZM248.871 11.7656V11.9004C248.871 12.2168 248.908 12.5156 248.982 12.7969C249.057 13.0742 249.168 13.3203 249.316 13.5352C249.469 13.75 249.658 13.9199 249.885 14.0449C250.111 14.166 250.375 14.2266 250.676 14.2266C250.973 14.2266 251.232 14.166 251.455 14.0449C251.682 13.9199 251.869 13.75 252.018 13.5352C252.166 13.3203 252.277 13.0742 252.352 12.7969C252.43 12.5156 252.469 12.2168 252.469 11.9004V11.7656C252.469 11.4531 252.43 11.1582 252.352 10.8809C252.277 10.5996 252.164 10.3516 252.012 10.1367C251.863 9.91797 251.676 9.74609 251.449 9.62109C251.227 9.49609 250.965 9.43359 250.664 9.43359C250.367 9.43359 250.105 9.49609 249.879 9.62109C249.656 9.74609 249.469 9.91797 249.316 10.1367C249.168 10.3516 249.057 10.5996 248.982 10.8809C248.908 11.1582 248.871 11.4531 248.871 11.7656ZM259.699 8.66016V15H258.615V8.66016H259.699ZM259.33 11.5723V12.4629C259.111 12.5449 258.889 12.6191 258.662 12.6855C258.439 12.748 258.203 12.7988 257.953 12.8379C257.707 12.873 257.439 12.8906 257.15 12.8906C256.65 12.8906 256.217 12.8047 255.85 12.6328C255.482 12.457 255.199 12.1934 255 11.8418C254.801 11.4863 254.701 11.0391 254.701 10.5V8.64844H255.785V10.5C255.785 10.8516 255.838 11.1367 255.943 11.3555C256.049 11.5742 256.203 11.7363 256.406 11.8418C256.609 11.9434 256.857 11.9941 257.15 11.9941C257.432 11.9941 257.695 11.9766 257.941 11.9414C258.191 11.9023 258.43 11.8516 258.656 11.7891C258.887 11.7266 259.111 11.6543 259.33 11.5723ZM265.746 11.4082V12.2871H262.395V11.4082H265.746ZM262.623 8.66016V15H261.539V8.66016H262.623ZM266.625 8.66016V15H265.535V8.66016H266.625ZM269.262 10.8398H271.166C271.678 10.8398 272.109 10.9297 272.461 11.1094C272.812 11.2852 273.078 11.5293 273.258 11.8418C273.441 12.1504 273.533 12.502 273.533 12.8965C273.533 13.1895 273.482 13.4648 273.381 13.7227C273.279 13.9766 273.127 14.1992 272.924 14.3906C272.725 14.582 272.477 14.7324 272.18 14.8418C271.887 14.9473 271.549 15 271.166 15H268.471V8.66016H269.555V14.1094H271.166C271.479 14.1094 271.729 14.0527 271.916 13.9395C272.104 13.8262 272.238 13.6797 272.32 13.5C272.402 13.3203 272.443 13.1328 272.443 12.9375C272.443 12.7461 272.402 12.5586 272.32 12.375C272.238 12.1914 272.104 12.0391 271.916 11.918C271.729 11.793 271.479 11.7305 271.166 11.7305H269.262V10.8398ZM275.789 8.66016V15H274.705V8.66016H275.789ZM278.859 13.2832L281.783 8.66016H282.873V15H281.783V10.377L278.859 15H277.781V8.66016H278.859V13.2832ZM281.191 6.36328H282.07C282.07 6.66797 282 6.93945 281.859 7.17773C281.719 7.41211 281.518 7.5957 281.256 7.72852C280.994 7.86133 280.684 7.92773 280.324 7.92773C279.781 7.92773 279.352 7.7832 279.035 7.49414C278.723 7.20117 278.566 6.82422 278.566 6.36328H279.445C279.445 6.59375 279.512 6.79688 279.645 6.97266C279.777 7.14844 280.004 7.23633 280.324 7.23633C280.637 7.23633 280.859 7.14844 280.992 6.97266C281.125 6.79688 281.191 6.59375 281.191 6.36328ZM290.127 14.2266C290.385 14.2266 290.623 14.1738 290.842 14.0684C291.061 13.9629 291.24 13.8184 291.381 13.6348C291.521 13.4473 291.602 13.2344 291.621 12.9961H292.652C292.633 13.3711 292.506 13.7207 292.271 14.0449C292.041 14.3652 291.738 14.625 291.363 14.8242C290.988 15.0195 290.576 15.1172 290.127 15.1172C289.65 15.1172 289.234 15.0332 288.879 14.8652C288.527 14.6973 288.234 14.4668 288 14.1738C287.77 13.8809 287.596 13.5449 287.479 13.166C287.365 12.7832 287.309 12.3789 287.309 11.9531V11.707C287.309 11.2812 287.365 10.8789 287.479 10.5C287.596 10.1172 287.77 9.7793 288 9.48633C288.234 9.19336 288.527 8.96289 288.879 8.79492C289.234 8.62695 289.65 8.54297 290.127 8.54297C290.623 8.54297 291.057 8.64453 291.428 8.84766C291.799 9.04688 292.09 9.32031 292.301 9.66797C292.516 10.0117 292.633 10.4023 292.652 10.8398H291.621C291.602 10.5781 291.527 10.3418 291.398 10.1309C291.273 9.91992 291.102 9.75195 290.883 9.62695C290.668 9.49805 290.416 9.43359 290.127 9.43359C289.795 9.43359 289.516 9.5 289.289 9.63281C289.066 9.76172 288.889 9.9375 288.756 10.1602C288.627 10.3789 288.533 10.623 288.475 10.8926C288.42 11.1582 288.393 11.4297 288.393 11.707V11.9531C288.393 12.2305 288.42 12.5039 288.475 12.7734C288.529 13.043 288.621 13.2871 288.75 13.5059C288.883 13.7246 289.061 13.9004 289.283 14.0332C289.51 14.1621 289.791 14.2266 290.127 14.2266ZM296.502 15.1172C296.061 15.1172 295.66 15.043 295.301 14.8945C294.945 14.7422 294.639 14.5293 294.381 14.2559C294.127 13.9824 293.932 13.6582 293.795 13.2832C293.658 12.9082 293.59 12.498 293.59 12.0527V11.8066C293.59 11.291 293.666 10.832 293.818 10.4297C293.971 10.0234 294.178 9.67969 294.439 9.39844C294.701 9.11719 294.998 8.9043 295.33 8.75977C295.662 8.61523 296.006 8.54297 296.361 8.54297C296.814 8.54297 297.205 8.62109 297.533 8.77734C297.865 8.93359 298.137 9.15234 298.348 9.43359C298.559 9.71094 298.715 10.0391 298.816 10.418C298.918 10.793 298.969 11.2031 298.969 11.6484V12.1348H294.234V11.25H297.885V11.168C297.869 10.8867 297.811 10.6133 297.709 10.3477C297.611 10.082 297.455 9.86328 297.24 9.69141C297.025 9.51953 296.732 9.43359 296.361 9.43359C296.115 9.43359 295.889 9.48633 295.682 9.5918C295.475 9.69336 295.297 9.8457 295.148 10.0488C295 10.252 294.885 10.5 294.803 10.793C294.721 11.0859 294.68 11.4238 294.68 11.8066V12.0527C294.68 12.3535 294.721 12.6367 294.803 12.9023C294.889 13.1641 295.012 13.3945 295.172 13.5938C295.336 13.793 295.533 13.9492 295.764 14.0625C295.998 14.1758 296.264 14.2324 296.561 14.2324C296.943 14.2324 297.268 14.1543 297.533 13.998C297.799 13.8418 298.031 13.6328 298.23 13.3711L298.887 13.8926C298.75 14.0996 298.576 14.2969 298.365 14.4844C298.154 14.6719 297.895 14.8242 297.586 14.9414C297.281 15.0586 296.92 15.1172 296.502 15.1172ZM301.318 9.87891V17.4375H300.229V8.66016H301.225L301.318 9.87891ZM305.59 11.7773V11.9004C305.59 12.3613 305.535 12.7891 305.426 13.1836C305.316 13.5742 305.156 13.9141 304.945 14.2031C304.738 14.4922 304.482 14.7168 304.178 14.877C303.873 15.0371 303.523 15.1172 303.129 15.1172C302.727 15.1172 302.371 15.0508 302.062 14.918C301.754 14.7852 301.492 14.5918 301.277 14.3379C301.062 14.084 300.891 13.7793 300.762 13.4238C300.637 13.0684 300.551 12.668 300.504 12.2227V11.5664C300.551 11.0977 300.639 10.6777 300.768 10.3066C300.896 9.93555 301.066 9.61914 301.277 9.35742C301.492 9.0918 301.752 8.89062 302.057 8.75391C302.361 8.61328 302.713 8.54297 303.111 8.54297C303.51 8.54297 303.863 8.62109 304.172 8.77734C304.48 8.92969 304.74 9.14844 304.951 9.43359C305.162 9.71875 305.32 10.0605 305.426 10.459C305.535 10.8535 305.59 11.293 305.59 11.7773ZM304.5 11.9004V11.7773C304.5 11.4609 304.467 11.1641 304.4 10.8867C304.334 10.6055 304.23 10.3594 304.09 10.1484C303.953 9.93359 303.777 9.76562 303.562 9.64453C303.348 9.51953 303.092 9.45703 302.795 9.45703C302.521 9.45703 302.283 9.50391 302.08 9.59766C301.881 9.69141 301.711 9.81836 301.57 9.97852C301.43 10.1348 301.314 10.3145 301.225 10.5176C301.139 10.7168 301.074 10.9238 301.031 11.1387V12.6562C301.109 12.9297 301.219 13.1875 301.359 13.4297C301.5 13.668 301.688 13.8613 301.922 14.0098C302.156 14.1543 302.451 14.2266 302.807 14.2266C303.1 14.2266 303.352 14.166 303.562 14.0449C303.777 13.9199 303.953 13.75 304.09 13.5352C304.23 13.3203 304.334 13.0742 304.4 12.7969C304.467 12.5156 304.5 12.2168 304.5 11.9004ZM309.949 12.2109H307.869L307.857 11.3438H309.557C309.893 11.3438 310.172 11.3105 310.395 11.2441C310.621 11.1777 310.791 11.0781 310.904 10.9453C311.018 10.8125 311.074 10.6484 311.074 10.4531C311.074 10.3008 311.041 10.168 310.975 10.0547C310.912 9.9375 310.816 9.8418 310.688 9.76758C310.559 9.68945 310.398 9.63281 310.207 9.59766C310.02 9.55859 309.799 9.53906 309.545 9.53906H308.156V15H307.072V8.66016H309.545C309.947 8.66016 310.309 8.69531 310.629 8.76562C310.953 8.83594 311.229 8.94336 311.455 9.08789C311.686 9.22852 311.861 9.4082 311.982 9.62695C312.104 9.8457 312.164 10.1035 312.164 10.4004C312.164 10.5918 312.125 10.7734 312.047 10.9453C311.969 11.1172 311.854 11.2695 311.701 11.4023C311.549 11.5352 311.361 11.6445 311.139 11.7305C310.916 11.8125 310.66 11.8652 310.371 11.8887L309.949 12.2109ZM309.949 15H307.477L308.016 14.1211H309.949C310.25 14.1211 310.5 14.084 310.699 14.0098C310.898 13.9316 311.047 13.8223 311.145 13.6816C311.246 13.5371 311.297 13.3652 311.297 13.166C311.297 12.9668 311.246 12.7969 311.145 12.6562C311.047 12.5117 310.898 12.4023 310.699 12.3281C310.5 12.25 310.25 12.2109 309.949 12.2109H308.303L308.314 11.3438H310.371L310.764 11.6719C311.111 11.6992 311.406 11.7852 311.648 11.9297C311.891 12.0742 312.074 12.2578 312.199 12.4805C312.324 12.6992 312.387 12.9375 312.387 13.1953C312.387 13.4922 312.33 13.7539 312.217 13.9805C312.107 14.207 311.947 14.3965 311.736 14.5488C311.525 14.6973 311.27 14.8105 310.969 14.8887C310.668 14.9629 310.328 15 309.949 15ZM316.471 15.1172C316.029 15.1172 315.629 15.043 315.27 14.8945C314.914 14.7422 314.607 14.5293 314.35 14.2559C314.096 13.9824 313.9 13.6582 313.764 13.2832C313.627 12.9082 313.559 12.498 313.559 12.0527V11.8066C313.559 11.291 313.635 10.832 313.787 10.4297C313.939 10.0234 314.146 9.67969 314.408 9.39844C314.67 9.11719 314.967 8.9043 315.299 8.75977C315.631 8.61523 315.975 8.54297 316.33 8.54297C316.783 8.54297 317.174 8.62109 317.502 8.77734C317.834 8.93359 318.105 9.15234 318.316 9.43359C318.527 9.71094 318.684 10.0391 318.785 10.418C318.887 10.793 318.938 11.2031 318.938 11.6484V12.1348H314.203V11.25H317.854V11.168C317.838 10.8867 317.779 10.6133 317.678 10.3477C317.58 10.082 317.424 9.86328 317.209 9.69141C316.994 9.51953 316.701 9.43359 316.33 9.43359C316.084 9.43359 315.857 9.48633 315.65 9.5918C315.443 9.69336 315.266 9.8457 315.117 10.0488C314.969 10.252 314.854 10.5 314.771 10.793C314.689 11.0859 314.648 11.4238 314.648 11.8066V12.0527C314.648 12.3535 314.689 12.6367 314.771 12.9023C314.857 13.1641 314.98 13.3945 315.141 13.5938C315.305 13.793 315.502 13.9492 315.732 14.0625C315.967 14.1758 316.232 14.2324 316.529 14.2324C316.912 14.2324 317.236 14.1543 317.502 13.998C317.768 13.8418 318 13.6328 318.199 13.3711L318.855 13.8926C318.719 14.0996 318.545 14.2969 318.334 14.4844C318.123 14.6719 317.863 14.8242 317.555 14.9414C317.25 15.0586 316.889 15.1172 316.471 15.1172ZM321.287 9.87891V17.4375H320.197V8.66016H321.193L321.287 9.87891ZM325.559 11.7773V11.9004C325.559 12.3613 325.504 12.7891 325.395 13.1836C325.285 13.5742 325.125 13.9141 324.914 14.2031C324.707 14.4922 324.451 14.7168 324.146 14.877C323.842 15.0371 323.492 15.1172 323.098 15.1172C322.695 15.1172 322.34 15.0508 322.031 14.918C321.723 14.7852 321.461 14.5918 321.246 14.3379C321.031 14.084 320.859 13.7793 320.73 13.4238C320.605 13.0684 320.52 12.668 320.473 12.2227V11.5664C320.52 11.0977 320.607 10.6777 320.736 10.3066C320.865 9.93555 321.035 9.61914 321.246 9.35742C321.461 9.0918 321.721 8.89062 322.025 8.75391C322.33 8.61328 322.682 8.54297 323.08 8.54297C323.479 8.54297 323.832 8.62109 324.141 8.77734C324.449 8.92969 324.709 9.14844 324.92 9.43359C325.131 9.71875 325.289 10.0605 325.395 10.459C325.504 10.8535 325.559 11.293 325.559 11.7773ZM324.469 11.9004V11.7773C324.469 11.4609 324.436 11.1641 324.369 10.8867C324.303 10.6055 324.199 10.3594 324.059 10.1484C323.922 9.93359 323.746 9.76562 323.531 9.64453C323.316 9.51953 323.061 9.45703 322.764 9.45703C322.49 9.45703 322.252 9.50391 322.049 9.59766C321.85 9.69141 321.68 9.81836 321.539 9.97852C321.398 10.1348 321.283 10.3145 321.193 10.5176C321.107 10.7168 321.043 10.9238 321 11.1387V12.6562C321.078 12.9297 321.188 13.1875 321.328 13.4297C321.469 13.668 321.656 13.8613 321.891 14.0098C322.125 14.1543 322.42 14.2266 322.775 14.2266C323.068 14.2266 323.32 14.166 323.531 14.0449C323.746 13.9199 323.922 13.75 324.059 13.5352C324.199 13.3203 324.303 13.0742 324.369 12.7969C324.436 12.5156 324.469 12.2168 324.469 11.9004Z" fill="#671D00"/>
</svg>
